<?xml version="1.0"?>
<svg width="24" height="24" xmlns="http://www.w3.org/2000/svg" xmlns:svg="http://www.w3.org/2000/svg" enable-background="new 0 0 24 24">
 <g class="layer">
  <title>Layer 1</title>
  <g id="svg_1">
   <rect fill="none" height="24" id="svg_2" width="24"/>
  </g>
  <ellipse cx="12" cy="12.09" fill="#ffffff" id="svg_8" rx="11.46" ry="11.46" stroke="#000000"/>
  <g id="svg_3" transform="matrix(1 0 0 1 0 0)">
   <g id="svg_4">
    <path d="m8.29,15.56l6.1,0l0,-0.82c0,-1.82 1.52,-3.3 3.4,-3.3l0.63,0l-1.61,-6.96c-0.18,-0.75 -0.87,-1.29 -1.66,-1.29l-3.3,0l0,1.65l3.3,0l1.19,5.16c0,0 -0.01,0 -0.01,0c-1.83,0.54 -3.23,2.05 -3.56,3.92l-4.47,0c-0.41,-1.11 -1.58,-1.85 -2.9,-1.6c-1,0.19 -1.81,0.99 -2,1.96c-0.3,1.57 0.94,2.94 2.5,2.94c1.1,0 2.04,-0.69 2.39,-1.65zm-2.39,0c-0.47,0 -0.85,-0.37 -0.85,-0.82s0.38,-0.82 0.85,-0.82s0.85,0.37 0.85,0.82s-0.38,0.82 -0.85,0.82z" id="svg_5"/>
    <path d="m17.79,12.26c-1.41,0 -2.55,1.11 -2.55,2.47s1.14,2.47 2.55,2.47s2.55,-1.11 2.55,-2.47s-1.14,-2.47 -2.55,-2.47zm0,3.3c-0.47,0 -0.85,-0.37 -0.85,-0.82s0.38,-0.82 0.85,-0.82s0.85,0.37 0.85,0.82s-0.38,0.82 -0.85,0.82z" id="svg_6"/>
    <polygon id="svg_7" points="10.994614362716675,18.85890007019043 7.598716497421265,18.85890007019043 12.692562818527222,21.333332061767578 12.692562818527222,19.6837100982666 16.088460683822632,19.6837100982666 10.994614362716675,17.209280014038086 "/>
   </g>
  </g>
 </g>
</svg>